<svg id="Layer_1" data-name="Layer 1" xmlns="http://www.w3.org/2000/svg" viewBox="0 0 41.43 48"><defs><style>.cls-1{fill:none;stroke:#fff;stroke-miterlimit:10;stroke-width:2px;}.cls-2{font-size:14px;fill:#fff;font-family:BlackHanSans, Black Han Sans;letter-spacing:-0.1em;}.cls-3{letter-spacing:-0.1em;}</style></defs><title>cortez-pointer</title><path class="cls-1" d="M28.82,48V45.26A2.21,2.21,0,0,1,31,43h6.11a2.38,2.38,0,0,0,2.33-2.45h0V37.35a1.86,1.86,0,0,1,.46-1.14,2.91,2.91,0,0,0,.71-1.93v-.66a1,1,0,0,1,.66-1h1.06a1.34,1.34,0,0,0,1-.45,1.3,1.3,0,0,0,.19-1.4,67.72,67.72,0,0,1-3-7.51,4.47,4.47,0,0,1-.22-1.5v-5a14.73,14.73,0,0,0-.55-4v0a13.9,13.9,0,0,0-3.14-5.7c-.32-.35-.65-.68-1-1L35,5.49A18.27,18.27,0,0,0,22.91,1,19.64,19.64,0,0,0,10.37,5.49,17.54,17.54,0,0,0,6.43,27.18c2.23,4.33,4,11.44,4.43,18.82v2" transform="translate(-3.28 0)"/><text class="cls-2" transform="translate(9.78 22.42)">우뇌<tspan class="cls-3"><tspan x="0" y="14">혁명</tspan></tspan></text></svg>